:SAMPLES-PER-SECOND 30
:FRAME-RANGE 1-564
:FULLY-SPECIFIED
:DEGREES
159
root  29.5242 39.3074 91.1759 167.702 -48.575 -177.872
RightUpLeg  -2.63178 -1.88662 -2.01839
RightLeg  5.41004 1.19588 -3.7267
RightFoot  4.90933 -1.35454 9.70234
RightToes  -1.74624e-010 0 -3.6325e-017
Spine  19.5715 5.66806 20.6621
Spine1  -5.86286 11.9196 -16.2883
HEad  3.48948 18.9337 -8.71712
LeftShoulder1  3.14391 -5.0737 -30.641
LeftArm  -10.6798 -15.2715 -7.04107
LeftForeArm  -69.5974 -35.8935 -10.4756
LeftHand  -0.0180434 5.45732 7.03177
RightShoulder  24.4247 37.441 51.6143
RightArm  1.61152 32.9827 3.70944
RightForeArm  -43.1203 21.9721 7.43388
RightHand  2.90205 13.7769 16.8957
LeftUpLeg  7.50523 -21.6356 -0.0122853
LeftLeg  37.9552 -4.2795 -3.20733
LeftFoot  -14.2373 0.105725 0.802156
LeftToes  -6.43926e-010 8.38805e-011 -3.16407e-011
160
root  29.5056 39.6388 90.0262 168.37 -49.8098 -178.124
RightUpLeg  -0.875933 -2.05318 -1.47043
RightLeg  3.8663 -0.295465 -3.03313
RightFoot  4.70378 -1.10671 8.06859
RightToes  -1.74624e-010 0 -3.6325e-017
Spine  20.0817 6.19616 19.902
Spine1  -6.04566 12.3189 -16.8242
HEad  3.31284 18.3215 -7.35202
LeftShoulder1  3.12051 -5.13873 -30.0876
LeftArm  -11.0147 -15.708 -6.31524
LeftForeArm  -73.7759 -36.0323 -10.516
LeftHand  -0.0130283 6.78064 1.80488
RightShoulder  24.1294 37.1302 51.3929
RightArm  3.2641 31.8734 3.83758
RightForeArm  -46.7484 25.3753 7.30566
RightHand  2.9482 12.9832 17.9294
LeftUpLeg  4.61932 -19.0452 1.05438
LeftLeg  37.3762 -1.64912 -0.982112
LeftFoot  -14.6697 0.156656 2.35949
LeftToes  -6.43926e-010 8.38805e-011 -3.16407e-011
161
root  29.4665 39.9186 89.0049 169.331 -51.8481 -178.534
RightUpLeg  0.732448 -2.16332 -1.16634
RightLeg  2.10113 -2.45444 -2.53772
RightFoot  4.52898 -0.909153 6.73758
RightToes  -1.74624e-010 0 -3.6325e-017
Spine  20.1811 6.32482 18.9614
Spine1  -5.9781 12.25 -17.1935
HEad  2.80654 17.8058 -6.51627
LeftShoulder1  3.08474 -5.14418 -29.644
LeftArm  -11.3565 -15.8188 -4.98315
LeftForeArm  -75.3673 -37.68 -11.038
LeftHand  -0.0910608 7.23851 -2.97896
RightShoulder  23.5076 36.3876 51.0303
RightArm  2.51567 30.248 3.76434
RightForeArm  -47.8383 30.4492 8.62498
RightHand  3.03462 12.0744 19.4399
LeftUpLeg  2.25607 -17.0359 1.25781
LeftLeg  34.2146 -3.53121 -2.22249
LeftFoot  -15.0775 0.168495 2.38981
LeftToes  -6.43926e-010 8.38805e-011 -3.16407e-011
162
root  29.4044 40.1548 88.1056 170.675 -54.7388 -179.099
RightUpLeg  1.95146 -2.50153 -1.22043
RightLeg  0.479378 -5.13404 -1.84743
RightFoot  4.37255 -0.707279 5.33821
RightToes  -1.74624e-010 0 -3.6325e-017
Spine  20.1376 6.27488 17.6981
Spine1  -6.31822 11.8055 -17.1038
HEad  2.82163 17.0628 -5.96399
LeftShoulder1  3.06248 -5.14013 -29.3986
LeftArm  -10.3656 -16.2185 -3.33346
LeftForeArm  -74.8068 -40.5472 -12.0273
LeftHand  -0.1413 7.22296 -5.92866
RightShoulder  22.4549 34.9467 50.6284
RightArm  1.81575 28.3477 3.49284
RightForeArm  -48.2459 36.547 10.4278
RightHand  3.11071 11.0224 21.2243
LeftUpLeg  0.149333 -15.6434 0.738883
LeftLeg  29.7863 -7.60412 -4.34308
LeftFoot  -15.4941 0.134921 1.15652
LeftToes  -6.43926e-010 8.38805e-011 -3.16407e-011
163
root  29.3053 40.3587 87.3146 172.232 -57.7981 -179.97
RightUpLeg  3.26338 -2.73207 -1.41084
RightLeg  -1.42585 -8.02015 -1.13905
RightFoot  4.29275 -0.576484 4.41055
RightToes  -1.74624e-010 0 -3.6325e-017
Spine  19.7375 6.10657 16.6917
Spine1  -6.1652 11.3851 -17.3115
HEad  3.00349 15.8255 -5.36179
LeftShoulder1  3.02362 -5.1632 -28.8446
LeftArm  -9.04069 -16.8802 -2.23647
LeftForeArm  -73.2421 -43.8724 -13.3085
LeftHand  -0.153989 6.82614 -8.51747
RightShoulder  21.1816 33.1158 50.2127
RightArm  1.06872 26.2839 2.78416
RightForeArm  -49.5233 43.5712 12.9912
RightHand  2.47929 9.10208 19.2007
LeftUpLeg  -1.25037 -14.3844 -0.502882
LeftLeg  24.7086 -8.60565 -3.97028
LeftFoot  -15.2036 0.0898703 -0.0396987
LeftToes  -6.43926e-010 8.38805e-011 -3.16407e-011
164
root  29.1679 40.5025 86.6146 173.392 -60.8244 179.379
RightUpLeg  4.77127 -2.96481 -1.4814
RightLeg  -3.41851 -10.9967 -0.181735
RightFoot  4.10796 -0.461697 3.60925
RightToes  -1.74624e-010 0 -3.6325e-017
Spine  19.2986 5.93874 15.738
Spine1  -6.01801 10.949 -17.0724
HEad  3.57953 14.4224 -5.0009
LeftShoulder1  2.988 -5.24545 -28.0915
LeftArm  -6.10645 -17.3049 -1.85444
LeftForeArm  -67.6769 -47.7177 -15.0178
LeftHand  -0.128963 6.49307 -8.68169
RightShoulder  19.774 30.9718 49.8642
RightArm  -0.365108 24.0056 1.53659
RightForeArm  -47.1527 48.8165 15.3156
RightHand  2.02935 8.55866 16.3272
LeftUpLeg  -1.58433 -14.4114 -2.02703
LeftLeg  19.3501 -6.85767 -2.34132
LeftFoot  -14.3745 0.0691536 -0.64479
LeftToes  -6.43926e-010 8.38805e-011 -3.16407e-011
165
root  28.9965 40.61 85.9972 173.687 -63.6574 179.519
RightUpLeg  6.20638 -3.14828 -1.30144
RightLeg  -5.04132 -13.159 0.875623
RightFoot  4.05049 -0.40259 3.18293
RightToes  -1.74624e-010 0 -3.6325e-017
Spine  18.8185 5.79222 14.8542
Spine1  -6.00235 10.4248 -15.918
HEad  4.43635 12.897 -4.83934
LeftShoulder1  2.95429 -5.30173 -27.4729
LeftArm  -2.68352 -17.3941 -1.80398
LeftForeArm  -69.0072 -50.5331 -16.446
LeftHand  -0.184294 7.41536 -7.613
RightShoulder  18.1158 28.577 49.1612
RightArm  -1.06447 22.1793 0.408012
RightForeArm  -45.2912 53.0147 17.6225
RightHand  1.8697 8.02273 15.6502
LeftUpLeg  -0.793177 -11.2748 -3.50294
LeftLeg  13.9188 -11.3567 -0.363074
LeftFoot  -13.4996 0.066656 -0.760602
LeftToes  -6.43926e-010 8.38805e-011 -3.16407e-011
166
root  28.7922 40.6356 85.416 173.312 -65.6102 -179.823
RightUpLeg  7.53849 -3.08679 -0.608874
RightLeg  -6.37678 -15.1695 1.77802
RightFoot  3.60369 -0.286761 2.37327
RightToes  -1.74624e-010 0 -3.6325e-017
Spine  18.0223 5.89621 13.9658
Spine1  -5.61243 10.1367 -14.4279
HEad  5.17594 11.6513 -4.56987
LeftShoulder1  2.9459 -5.38151 -27.0648
LeftArm  0.0418 -16.5714 -2.07319
LeftForeArm  -68.614 -53.4653 -18.1535
LeftHand  -0.173534 7.39077 -7.13381
RightShoulder  16.7106 26.6319 48.3169
RightArm  -0.834883 20.6573 -0.465117
RightForeArm  -43.5514 56.7529 20.1581
RightHand  1.59106 7.26268 14.1188
LeftUpLeg  0.847921 -6.19669 -4.4278
LeftLeg  8.41472 -19.9687 2.25898
LeftFoot  -12.4285 0.0623498 -1.28661
LeftToes  -6.43926e-010 8.38805e-011 -3.16407e-011
167
root  28.5824 40.6092 84.9001 171.752 -66.961 -178.129
RightUpLeg  9.02839 -2.70151 0.597671
RightLeg  -7.89624 -17.0741 2.67925
RightFoot  3.25461 -0.195801 1.70202
RightToes  -1.74624e-010 0 -3.6325e-017
Spine  17.3089 5.74291 13.3897
Spine1  -5.47033 9.6553 -13.2338
HEad  6.05478 10.7164 -3.88842
LeftShoulder1  2.92806 -5.44399 -26.619
LeftArm  1.66439 -14.2413 -2.43521
LeftForeArm  -65.2856 -57.1817 -20.7562
LeftHand  -0.119554 7.23699 -4.62743
RightShoulder  15.9823 25.5968 47.8731
RightArm  0.345968 19.432 -0.48861
RightForeArm  -41.2414 58.7504 21.7216
RightHand  1.34694 7.36227 11.8181
LeftUpLeg  2.62157 -3.52515 -4.25414
LeftLeg  3.76705 -25.2995 4.55173
LeftFoot  -9.51337 0.0744963 -1.08935
LeftToes  -6.43926e-010 8.38805e-011 -3.16407e-011
168
root  28.369 40.5659 84.4158 169.908 -67.0172 -176.41
RightUpLeg  10.5717 -2.14495 1.97199
RightLeg  -9.24795 -17.9105 3.27144
RightFoot  2.96349 -0.12529 1.15943
RightToes  -1.74624e-010 0 -3.6325e-017
Spine  16.593 5.87904 13.1027
Spine1  -5.05843 9.63176 -12.6069
HEad  7.01786 9.47278 -2.76982
LeftShoulder1  2.86947 -5.36075 -26.2517
LeftArm  2.23221 -11.8315 -3.32871
LeftForeArm  -60.6205 -60.1404 -23.2971
LeftHand  -0.065819 6.33413 -3.34185
RightShoulder  15.6493 24.9002 48.0469
RightArm  2.0261 17.9905 -0.570889
RightForeArm  -37.589 60.7383 23.4469
RightHand  1.09104 7.83991 9.15008
LeftUpLeg  4.47205 -2.52437 -3.44816
LeftLeg  1.10768 -27.4376 5.68739
LeftFoot  -4.71279 -0.144246 2.98124
LeftToes  -6.43926e-010 8.38805e-011 -3.16407e-011
169
root  28.1938 40.5467 83.9822 169.038 -66.8285 -175.876
RightUpLeg  12.121 -1.47412 3.03225
RightLeg  -10.5883 -18.618 3.5069
RightFoot  2.83654 -0.0794252 0.794245
RightToes  -1.74624e-010 0 -3.6325e-017
Spine  16.0527 6.09098 12.4773
Spine1  -4.68932 9.71661 -12.5107
HEad  8.13725 7.67843 -1.44922
LeftShoulder1  2.82985 -5.0813 -26.8643
LeftArm  2.5716 -10.3091 -3.50209
LeftForeArm  -55.6751 -62.4811 -25.7014
LeftHand  -0.0386969 5.99576 -0.940725
RightShoulder  15.3867 23.9178 48.9717
RightArm  3.20021 16.712 -0.677507
RightForeArm  -34.6042 61.6203 24.2314
RightHand  0.937575 8.5054 7.41014
LeftUpLeg  5.57867 -1.94089 -2.78721
LeftLeg  0.512091 -28.1209 6.16199
LeftFoot  -3.77637 -0.227859 3.79014
LeftToes  -6.43926e-010 8.38805e-011 -3.16407e-011
170
root  28.0454 40.5429 83.61 169.34 -66.6471 -176.501
RightUpLeg  13.2046 -1.39045 3.37916
RightLeg  -11.2817 -18.5785 3.50515
RightFoot  2.55555 -0.0464224 0.523968
RightToes  -1.74624e-010 0 -3.6325e-017
Spine  15.2083 6.32376 11.774
Spine1  -3.95176 9.87742 -12.4822
HEad  9.00142 5.35851 -0.184162
LeftShoulder1  2.80908 -4.91143 -27.2961
LeftArm  2.80571 -8.58786 -4.40307
LeftForeArm  -49.7438 -64.5538 -28.2041
LeftHand  -0.0300085 4.57509 0.838705
RightShoulder  15.1312 22.7316 50.368
RightArm  3.52187 15.8595 -0.707518
RightForeArm  -33.0783 61.335 23.8543
RightHand  0.918795 9.1552 6.90127
LeftUpLeg  6.19977 -1.36844 -2.28332
LeftLeg  0.687317 -28.6597 5.6458
LeftFoot  -3.89867 -0.237809 4.01667
LeftToes  -6.43926e-010 8.38805e-011 -3.16407e-011
171
root  27.8957 40.5228 83.3181 169.286 -66.2912 -176.729
RightUpLeg  13.7235 -1.34714 3.72389
RightLeg  -10.8933 -18.3991 3.24297
RightFoot  1.88947 -0.0295607 0.365965
RightToes  -1.74624e-010 0 -3.6325e-017
Spine  14.3258 6.46286 11.6912
Spine1  -3.19087 10.0468 -12.5724
HEad  9.79587 3.41174 -0.132671
LeftShoulder1  2.81253 -4.7984 -27.8067
LeftArm  3.30719 -6.81215 -5.20148
LeftForeArm  -44.9646 -66.1371 -30.4245
LeftHand  -0.0560343 3.79048 2.73722
RightShoulder  14.7746 21.7396 51.128
RightArm  3.94979 14.6799 -1.33982
RightForeArm  -32.0894 61.5745 24.0577
RightHand  1.12318 9.81034 8.12338
LeftUpLeg  6.74497 -0.899465 -1.77697
LeftLeg  1.02569 -28.8496 5.18335
LeftFoot  -4.29732 -0.226639 4.10208
LeftToes  -6.43926e-010 8.38805e-011 -3.16407e-011
